#!OML:ASF Y:\EmotionMaleHayes\Project 1\Capture day 1\Session 1\Male1.ASF
:FULLY-SPECIFIED
:DEGREES
193
root 9.67384 16.126 -0.0153763 397.51 82.5977 395.884
lowerback 14.3204 4.70356 -7.75275
upperback 4.17485 5.21336 -4.39655
thorax -3.81109 2.7331 -1.21486
lowerneck -28.7227 0.104466 3.56859
upperneck 17.5363 -1.1624 -0.585961
head 10.256 -0.350902 -0.976897
rclavicle -9.93923e-015 -4.77083e-015
rhumerus -29.0367 35.906 -93.9003
rradius 83.2959
rwrist -14.3964
rhand -17.4442 -26.1972
rfingers 7.12502
rthumb 8.80667 -55.9934
lclavicle -9.93923e-015 -4.77083e-015
lhumerus -66.8585 -22.1822 96.4721
lradius 38.3425
lwrist 25.2637
lhand -32.5073 -22.9805
lfingers 7.12502
lthumb -5.7385 6.92181
rfemur 8.39579 3.11261 12.8954
rtibia 55.9436
rfoot -1.29265 -0.257111
rtoes 17.4249
lfemur -27.9304 4.3473 -22.6309
ltibia 34.7167
lfoot -9.87542 5.90292
ltoes -0.184046
194
root 9.99199 16.2633 -0.0366922 401.859 82.6727 400.442
lowerback 14.5754 4.42323 -7.81629
upperback 4.06192 4.79432 -4.5564
thorax -4.043 2.53521 -1.29755
lowerneck -28.7671 0.152699 3.50208
upperneck 18.0189 -1.12111 -0.408608
head 10.4437 -0.30588 -0.898811
rclavicle 1.51076e-014 -2.3059e-014
rhumerus -30.0561 32.3119 -95.5536
rradius 78.8879
rwrist -12.8972
rhand -17.5741 -26.0981
rfingers 7.12502
rthumb 8.68133 -55.8996
lclavicle 1.51076e-014 -2.3059e-014
lhumerus -63.175 -21.6898 95.505
lradius 36.2305
lwrist 24.3237
lhand -32.3473 -23.6048
lfingers 7.12502
lthumb -5.58404 6.30167
rfemur 6.09045 2.35412 12.4512
rtibia 57.6693
rfoot -2.69753 -1.16239
rtoes 16.6618
lfemur -25.3672 3.39782 -23.2732
ltibia 33.0132
lfoot -10.4236 5.99858
ltoes -0.759341
195
root 10.3125 16.4024 -0.0601758 404.314 82.812 403.148
lowerback 14.6934 4.11301 -7.67419
upperback 4.03096 4.38963 -4.63106
thorax -4.10899 2.33841 -1.38732
lowerneck -28.2862 0.112013 3.14445
upperneck 18.1435 -1.1447 0.126187
head 10.4146 -0.270431 -0.650193
rclavicle 2.46493e-014 1.66979e-014
rhumerus -30.5754 28.64 -96.7176
rradius 74.091
rwrist -11.2638
rhand -18.2316 -25.7841
rfingers 7.12502
rthumb 8.04682 -55.6109
lclavicle 2.46493e-014 1.66979e-014
lhumerus -59.4618 -20.8829 94.3568
lradius 34.5264
lwrist 23.621
lhand -32.4487 -23.9591
lfingers 7.12502
lthumb -5.68197 5.94474
rfemur 3.94134 1.61569 12.2728
rtibia 58.8929
rfoot -4.17668 -1.29491
rtoes 13.7909
lfemur -22.7571 2.60622 -23.6396
ltibia 31.2437
lfoot -11.0183 6.1057
ltoes -0.71186
196
root 10.6289 16.5362 -0.0790562 404.286 82.8523 403.241
lowerback 14.6845 3.89749 -7.50691
upperback 3.90976 4.11392 -4.65574
thorax -4.21225 2.2027 -1.45777
lowerneck -27.8443 0.168457 3.10355
upperneck 18.2984 -1.12292 0.48813
head 10.4008 -0.213465 -0.508315
rclavicle -3.97569e-015 -2.22639e-014
rhumerus -31.0063 24.596 -97.5058
rradius 69.1552
rwrist -9.38042
rhand -19.1976 -25.6514
rfingers 7.12502
rthumb 7.11445 -55.5118
lclavicle -3.97569e-015 -2.22639e-014
lhumerus -55.9703 -19.718 93.0161
lradius 33.4042
lwrist 23.0733
lhand -32.6702 -23.791
lfingers 7.12502
lthumb -5.89583 6.10696
rfemur 1.59868 1.21032 12.4281
rtibia 59.7996
rfoot -5.30136 -1.35828
rtoes 12.4833
lfemur -20.2642 2.17232 -23.7545
ltibia 29.38
lfoot -11.4509 6.23768
ltoes -0.743204
197
root 10.943 16.6642 -0.0995692 406.332 82.8842 405.302
lowerback 14.6517 3.67993 -7.49141
upperback 3.74108 3.81101 -4.69305
thorax -4.36162 2.05565 -1.45376
lowerneck -27.6541 0.230509 3.17857
upperneck 18.6162 -1.10462 0.653816
head 10.4869 -0.171897 -0.457882
rclavicle 3.97569e-016 -4.37326e-014
rhumerus -31.3115 20.2894 -97.7608
rradius 64.014
rwrist -7.70996
rhand -20.7289 -25.2028
rfingers 7.12502
rthumb 5.63613 -55.1079
lclavicle 3.97569e-016 -4.37326e-014
lhumerus -52.5632 -18.3082 91.758
lradius 32.5733
lwrist 22.8359
lhand -32.9478 -24.1181
lfingers 7.12502
lthumb -6.16381 5.77219
rfemur -0.725933 0.767716 12.4073
rtibia 60.2697
rfoot -6.31055 -1.34797
rtoes 11.6833
lfemur -17.8766 1.66209 -24.1654
ltibia 27.4134
lfoot -11.6337 6.32144
ltoes -2.13605
